<svg width="56" height="56" viewBox="0 0 56 56" fill="none" xmlns="http://www.w3.org/2000/svg">
<path d="M55.9973 27.6171C55.8004 12.5138 43.4944 0.210278 28.3991 0.00248508C12.6475 -0.205308 -0.205348 12.6451 0.00248557 28.3936C0.221258 43.4859 12.5163 55.7895 27.6115 55.9972C43.3631 56.216 56.216 43.3547 55.9973 27.6171ZM45.4196 44.0546C45.2227 44.2733 44.8727 44.2843 44.6539 44.0874C44.632 44.0656 44.6102 44.0437 44.5883 44.0109C43.385 42.436 41.9083 41.0908 40.2347 40.03C36.8109 37.8318 32.4683 36.6178 28.0053 36.6178C23.5424 36.6178 19.2107 37.8318 15.776 40.03C14.1024 41.0908 12.6256 42.436 11.4224 44.0109C11.2474 44.2515 10.9083 44.2952 10.6676 44.1202C10.6458 44.0984 10.6129 44.0765 10.5911 44.0546C6.64222 39.7894 4.39981 34.2227 4.3123 28.4045C4.09353 15.3026 14.8462 4.34427 27.9506 4.31146C41.0551 4.27865 51.6984 14.9198 51.6984 27.9999C51.6984 33.9493 49.456 39.68 45.4196 44.0546Z" fill="black"/>
<path d="M28.0051 12.9294C25.3471 12.9294 22.9515 13.9247 21.2451 15.7292C19.5387 17.5337 18.6854 20.0382 18.8823 22.7176C19.2761 27.9999 23.3672 32.3089 28.0051 32.3089C32.6431 32.3089 36.7342 27.9999 37.128 22.7176C37.3248 20.06 36.4826 17.5884 34.7433 15.7401C33.0369 13.9247 30.6414 12.9294 28.0051 12.9294Z" fill="black"/>
</svg>
